<svg width="300" height="300" viewBox="0 0 300 300" fill="none" xmlns="http://www.w3.org/2000/svg">
<rect width="300" height="300" fill="#111828"/>
<path d="M194.01 116.458C194.01 113.46 192.819 110.584 190.699 108.464C188.579 106.344 185.703 105.153 182.705 105.153C179.707 105.153 176.831 106.344 174.711 108.464C172.591 110.584 171.4 113.46 171.4 116.458V127.763H182.695C185.69 127.749 188.558 126.554 190.677 124.437C192.796 122.32 193.993 119.453 194.01 116.458ZM250.647 128.93C246.727 109.922 237.508 92.4117 224.055 78.4231C210.601 64.4346 193.464 54.5395 174.623 49.8819C155.782 45.2242 136.008 45.9943 117.586 52.1031C99.1647 58.2118 82.8484 69.4098 70.5237 84.4022C58.1991 99.3946 50.3695 117.569 47.9402 136.824C45.511 156.08 48.5813 175.63 56.7961 193.213C65.0109 210.797 78.0348 225.696 94.3618 236.189C110.689 246.682 129.652 252.339 149.06 252.507V150.103H115.497C110.807 150.262 106.362 152.237 103.1 155.611C99.838 158.985 98.0147 163.494 98.0147 168.187C98.0147 172.88 99.838 177.389 103.1 180.763C106.362 184.137 110.807 186.111 115.497 186.27V208.611C104.773 208.611 94.4884 204.351 86.9055 196.768C79.3226 189.185 75.0626 178.9 75.0626 168.176C75.0626 157.453 79.3226 147.168 86.9055 139.585C94.4884 132.002 104.773 127.742 115.497 127.742H149.06V116.458C149.06 109.804 151.033 103.299 154.73 97.7657C158.427 92.2327 163.682 87.9203 169.829 85.3738C175.977 82.8273 182.742 82.161 189.269 83.4592C195.795 84.7574 201.79 87.9618 206.496 92.6672C211.201 97.3726 214.406 103.368 215.704 109.894C217.002 116.421 216.336 123.186 213.789 129.334C211.243 135.481 206.93 140.736 201.397 144.433C195.864 148.13 189.359 150.103 182.705 150.103H171.4V250.337C184.576 247.57 197.078 242.234 208.191 234.635C219.304 227.036 228.812 217.322 236.171 206.048C243.53 194.774 248.596 182.161 251.08 168.929C253.563 155.697 253.416 142.106 250.647 128.93Z" fill="white"/>
</svg>
